<?xml version="1.0" encoding="UTF-8"?>
<svg xmlns="http://www.w3.org/2000/svg" xmlns:xlink="http://www.w3.org/1999/xlink" viewBox="0 0 30 30" width="30px" height="30px">
<g id="surface35360191">
<path style=" stroke:none;fill-rule:nonzero;fill:rgb(20%,20%,20%);fill-opacity:1;" d="M 15 1.199219 C 7.390625 1.199219 1.199219 7.390625 1.199219 15 C 1.199219 17.375 1.8125 19.710938 2.976562 21.773438 L 1.222656 28.039062 C 1.164062 28.242188 1.21875 28.464844 1.371094 28.617188 C 1.484375 28.734375 1.640625 28.800781 1.800781 28.800781 C 1.847656 28.800781 1.898438 28.792969 1.945312 28.78125 L 8.480469 27.164062 C 10.476562 28.234375 12.726562 28.800781 15 28.800781 C 22.609375 28.800781 28.800781 22.609375 28.800781 15 C 28.800781 7.390625 22.609375 1.199219 15 1.199219 Z M 21.941406 19.871094 C 21.648438 20.6875 20.230469 21.433594 19.550781 21.53125 C 18.941406 21.621094 18.167969 21.660156 17.320312 21.394531 C 16.804688 21.230469 16.144531 21.015625 15.296875 20.65625 C 11.746094 19.140625 9.425781 15.609375 9.246094 15.375 C 9.070312 15.140625 7.800781 13.476562 7.800781 11.757812 C 7.800781 10.035156 8.714844 9.1875 9.039062 8.839844 C 9.367188 8.488281 9.75 8.398438 9.984375 8.398438 C 10.222656 8.398438 10.457031 8.402344 10.664062 8.414062 C 10.882812 8.421875 11.175781 8.332031 11.460938 9.011719 C 11.757812 9.714844 12.464844 11.433594 12.554688 11.609375 C 12.640625 11.785156 12.699219 11.992188 12.582031 12.222656 C 12.464844 12.457031 12.40625 12.605469 12.230469 12.808594 C 12.050781 13.011719 11.855469 13.265625 11.699219 13.421875 C 11.519531 13.597656 11.335938 13.785156 11.542969 14.136719 C 11.75 14.484375 12.460938 15.632812 13.511719 16.558594 C 14.867188 17.75 16.007812 18.121094 16.363281 18.296875 C 16.714844 18.46875 16.921875 18.441406 17.128906 18.207031 C 17.335938 17.972656 18.015625 17.1875 18.25 16.835938 C 18.488281 16.484375 18.722656 16.542969 19.046875 16.660156 C 19.375 16.777344 21.113281 17.625 21.46875 17.796875 C 21.824219 17.972656 22.058594 18.0625 22.148438 18.207031 C 22.238281 18.351562 22.238281 19.054688 21.941406 19.871094 Z M 21.941406 19.871094 "/>
</g>
</svg>
